<?xml version="1.0" encoding="utf-8"?>
<!-- Generator: Adobe Illustrator 16.0.0, SVG Export Plug-In . SVG Version: 6.00 Build 0)  -->
<!DOCTYPE svg PUBLIC "-//W3C//DTD SVG 1.1//EN" "http://www.w3.org/Graphics/SVG/1.1/DTD/svg11.dtd">
<svg version="1.1"
	 id="Calque_1"
	 xmlns="http://www.w3.org/2000/svg" xmlns:xlink="http://www.w3.org/1999/xlink" x="0px" y="0px" width="500px" height="500px"
	 viewBox="49.863 161.857 500 500" enable-background="new 49.863 161.857 500 500" xml:space="preserve">
<path id="shape0" fill="#17A0FF" d="M145.063,161.857h309.6c52.577,0,95.2,42.622,95.2,95.2v309.6c0,52.577-42.623,95.2-95.2,95.2
	h-309.6c-52.578,0-95.2-42.623-95.2-95.2v-309.6C49.863,204.479,92.486,161.857,145.063,161.857z"/>
<path fill="#FFFFFF" d="M205.069,374.594c-22.183,1.172-39.101,19.77-37.424,42.131c0.543,7.248,11.891,7.301,11.344,0
	c-1.196-15.959,9.719-29.924,26.08-30.787C212.345,385.554,212.383,374.208,205.069,374.594L205.069,374.594z"/>
<path fill="#FFFFFF" d="M385.81,374.594c-22.183,1.172-39.1,19.77-37.424,42.131c0.543,7.248,11.891,7.301,11.344,0
	c-1.196-15.959,9.719-29.924,26.08-30.787C393.085,385.554,393.123,374.208,385.81,374.594L385.81,374.594z"/>
<path fill="#FFFFFF" d="M461.792,323.836l-338.69,0.697c-9.744,0.021-17.627,7.787-17.607,17.347l0.321,156.339
	c0.02,9.56,7.935,17.295,17.679,17.275l120.582-0.25c0.524-32.489,22.04-76.076,48.606-76.131s48.261,43.443,48.919,75.931
	l120.583-0.248c9.744-0.02,17.627-7.787,17.607-17.347l-0.322-156.34C479.451,331.551,471.536,323.817,461.792,323.836z
	 M202.401,453.134c-23.806,0-43.105-19.299-43.105-43.105s19.299-43.105,43.105-43.105s43.105,19.299,43.105,43.105
	S226.207,453.134,202.401,453.134z M382.841,453.134c-23.806,0-43.105-19.299-43.105-43.105s19.299-43.105,43.105-43.105
	s43.105,19.299,43.105,43.105S406.647,453.134,382.841,453.134z"/>
</svg>
