<?xml version="1.0" standalone="no"?>
<!DOCTYPE svg PUBLIC "-//W3C//DTD SVG 20010904//EN" "http://www.w3.org/TR/2001/REC-SVG-20010904/DTD/svg10.dtd">
<!-- Created using Krita: http://krita.org -->
<svg xmlns="http://www.w3.org/2000/svg" 
    xmlns:xlink="http://www.w3.org/1999/xlink"
    width="70.3125pt"
    height="70.3125pt"
    viewBox="0 0 70.3125 70.3125">
<defs/>
<path id="shape0" transform="matrix(0.140625 0 0 0.140625 1.459121747871e-07 7.55310054501024e-07)" fill="#503d4d" d="M95.2 0L404.8 0C457.377 0 500 42.622 500 95.2L500 404.8C500 457.377 457.377 500 404.8 500L95.2 500C42.622 500 0 457.377 0 404.8L0 95.2C-4.26326e-14 42.622 42.623 0 95.2 0Z"/><path id="shape0" transform="matrix(0.140625 0 0 0.140625 17.7028335413381 29.9417863525948)" fill="#ffffff" d="M37.5387 0.0096285C15.3557 1.18163 -1.56232 19.7796 0.114684 42.1406C0.657684 49.3886 12.0057 49.4416 11.4587 42.1406C10.2627 26.1816 21.1777 12.2166 37.5387 11.3536C44.8147 10.9696 44.8527 -0.376372 37.5387 0.0096285Z"/><path id="shape1" transform="matrix(0.140625 0 0 0.140625 43.1195542709074 29.9417863525948)" fill="#ffffff" d="M37.5386 0.0096285C15.3556 1.18163 -1.56144 19.7796 0.114559 42.1406C0.657559 49.3886 12.0056 49.4416 11.4586 42.1406C10.2626 26.1816 21.1776 12.2166 37.5386 11.3536C44.8136 10.9696 44.8516 -0.376372 37.5386 0.0096285Z"/><path id="shape2" transform="matrix(0.140625 0 0 0.140625 8.97911184761469 22.8052916978678)" fill="#ffffff" d="M356.297 3.49329e-05L17.607 0.697035C7.86304 0.718035 -0.019962 8.48403 3.79725e-05 18.044L0.321038 174.383C0.341038 183.943 8.25604 191.678 18 191.658L138.582 191.408C139.106 158.919 160.622 115.332 187.188 115.277C213.754 115.222 235.449 158.72 236.107 191.208L356.69 190.96C366.434 190.94 374.317 183.173 374.297 173.613L373.975 17.273C373.956 7.71503 366.041 -0.0189651 356.297 3.49329e-05ZM96.906 129.298C73.1 129.298 53.801 109.999 53.801 86.193C53.801 62.387 73.1 43.088 96.906 43.088C120.712 43.088 140.011 62.387 140.011 86.193C140.011 109.999 120.712 129.298 96.906 129.298ZM277.346 129.298C253.54 129.298 234.241 109.999 234.241 86.193C234.241 62.387 253.54 43.088 277.346 43.088C301.152 43.088 320.451 62.387 320.451 86.193C320.451 109.999 301.152 129.298 277.346 129.298Z"/>
</svg>
