<?xml version="1.0" standalone="no"?><!DOCTYPE svg PUBLIC "-//W3C//DTD SVG 1.1//EN" "http://www.w3.org/Graphics/SVG/1.1/DTD/svg11.dtd"><svg t="1602691172476" class="icon" viewBox="0 0 1877 1024" version="1.1" xmlns="http://www.w3.org/2000/svg" p-id="5150" xmlns:xlink="http://www.w3.org/1999/xlink" width="366.6015625" height="200"><defs><style type="text/css"></style></defs><path d="M1333.215 991.956h-799.927c-1.913 0.028-4.171 0.044-6.432 0.044-259.584 0-470.387-208.863-473.521-467.705l-0.003-24.294c3.137-259.137 213.939-468.001 473.524-468.001 2.261 0 4.52 0.016 6.773 0.048l799.585-0.004c1.913-0.028 4.171-0.044 6.432-0.044 259.584 0 470.387 208.863 473.521 467.705l0.003 25.094c-3.584 258.79-214.21 467.201-473.514 467.201-2.265 0-4.526-0.016-6.784-0.048zM533.289 327.217c-0.48-0.005-1.048-0.007-1.616-0.007-95.468 0-173.018 76.717-174.367 171.864l-0.002 24.924c0.901 95.622 78.627 172.792 174.377 172.792 0.565 0 1.13-0.003 1.693-0.008l799.84 0.001c0.48 0.005 1.048 0.008 1.616 0.008 95.468 0 173.018-76.717 174.367-171.864l0.002-24.924c-0.901-95.622-78.627-172.792-174.377-172.792-0.565 0-1.13 0.003-1.693 0.008z" p-id="5151"></path></svg>