<?xml version="1.0" standalone="no"?><!DOCTYPE svg PUBLIC "-//W3C//DTD SVG 1.1//EN" "http://www.w3.org/Graphics/SVG/1.1/DTD/svg11.dtd"><svg t="1602691204153" class="icon" viewBox="0 0 1152 1024" version="1.1" xmlns="http://www.w3.org/2000/svg" p-id="5695" xmlns:xlink="http://www.w3.org/1999/xlink" width="225" height="200"><defs><style type="text/css"></style></defs><path d="M1141.85844 744.6c-22.6 28.4-77.6 48.6-77.6 48.6L654.05844 940.4v-108.6l301.8-107.6c34.2-12.2 39.6-29.6 11.6-38.8-27.8-9.2-78.2-6.6-112.4 5.8L654.05844 762.2v-112.8c46.4-15.6 94.2-27.2 151.4-33.6 81.8-9 181.8 1.2 260.4 31 88.4 28 98.4 69.4 76 97.8z m-448.8-185v-278c0-32.6-6-62.6-36.6-71.2-23.4-7.6-38 14.2-38 46.8v695.8l-187.6-59.6V64c79.8 14.8 196 49.8 258.4 70.8C848.25844 189.4 902.05844 257.4 902.05844 410.4c0 149-92 205.6-209 149.2zM86.45844 820.4c-90.8-25.6-106-79-64.6-109.6 38.2-28.4 103.4-49.8 103.4-49.8l269-95.6v109l-193.6 69.2c-34.2 12.2-39.4 29.6-11.6 38.8 27.8 9.2 78.2 6.6 112.4-5.8l92.8-33.8v97.6c-103.2 18.6-202.8 14.6-307.8-20z" fill="" p-id="5696"></path></svg>