<?xml version="1.0" standalone="no"?><!DOCTYPE svg PUBLIC "-//W3C//DTD SVG 1.1//EN" "http://www.w3.org/Graphics/SVG/1.1/DTD/svg11.dtd"><svg t="1602691214553" class="icon" viewBox="0 0 1612 1024" version="1.1" xmlns="http://www.w3.org/2000/svg" p-id="5971" xmlns:xlink="http://www.w3.org/1999/xlink" width="314.84375" height="200"><defs><style type="text/css"></style></defs><path d="M580.535433 6.450394c-99.174803 8.869291-158.840945 18.544882-223.344882 36.283464-58.456693 16.529134-87.080315 34.670866-103.609449 66.922835-6.853543 13.707087-7.659843 24.592126-7.659842 120.944882 0 92.724409 1.209449 110.059843 8.062992 138.280315 28.220472 112.075591 118.525984 201.977953 232.214173 232.214173 24.188976 6.450394 45.555906 8.466142 88.289764 8.869291 66.922835 0.806299 63.697638 2.015748 131.023622-51.603149 58.859843-47.168504 67.729134-51.60315 100.787402-52.006299 33.461417-0.40315 42.733858 4.434646 102.803149 52.409448 26.607874 21.366929 54.828346 41.927559 62.488189 45.555906 21.366929 9.675591 112.47874 8.062992 155.212599-3.225197 96.755906-25.801575 172.144882-88.692913 213.266141-178.595276 24.188976-52.812598 26.607874-69.744882 26.607874-192.705511V119.735433l-10.07874-17.335433c-13.707087-23.382677-38.702362-39.508661-82.645669-54.022047-63.294488-20.56063-128.604724-31.848819-247.937008-42.330709C939.338583-1.612598 665.6-1.209449 580.535433 6.450394z m487.004724 75.792126c97.562205 11.288189 185.448819 31.04252 216.088189 47.974803l15.722835 8.869291-2.418898 96.755906c-2.418898 105.222047-5.240945 121.348031-27.414173 166.500787-17.738583 36.283465-46.765354 69.341732-81.43622 92.72441-45.152756 29.833071-70.954331 37.492913-135.861418 39.911811l-54.425196 2.015748-48.377953-38.702363c-26.607874-21.366929-57.650394-43.540157-69.341732-49.184252-45.152756-22.576378-101.593701-22.576378-146.343308 0-11.691339 5.644094-42.733858 27.817323-68.938582 48.781103l-47.571654 38.299212h-43.540157c-53.618898 0-85.467717-7.256693-125.782677-28.220472-45.152756-23.382677-80.629921-60.472441-103.2063-106.834646-9.675591-20.15748-19.754331-47.168504-21.770078-60.069291-2.418898-13.303937-4.434646-64.503937-4.434646-114.091339 0-88.692913 0-89.902362 9.272441-95.546456 26.204724-16.932283 126.588976-39.105512 219.313386-48.781103 89.499213-8.869291 94.337008-9.272441 287.445669-7.659842 129.814173 0.806299 194.31811 2.822047 233.020472 7.256693z" p-id="5972"></path><path d="M731.716535 155.212598c-13.303937 12.900787-13.303937 29.833071 0.40315 42.733859 9.675591 8.869291 14.110236 9.675591 58.456693 11.288189 58.053543 1.612598 82.24252-1.612598 92.724409-12.094489 10.885039-10.885039 10.07874-32.251969-1.612598-43.137007-8.869291-8.466142-13.303937-8.869291-74.985827-8.869292-64.100787 0-65.310236 0.40315-74.985827 10.07874zM498.292913 804.686614c-22.576378 22.979528-8.062992 57.247244 47.571654 112.47874 69.744882 69.341732 154.809449 102.80315 260.434646 102.80315 104.012598 0 185.448819-31.445669 257.612598-98.771654 28.623622-27.011024 64.907087-75.792126 64.907087-87.483464 0-11.288189-10.885039-30.63937-19.754331-35.477166-4.434646-2.015748-13.707087-4.031496-20.56063-4.031496-14.110236 0-23.382677 8.466142-51.2 45.555906-32.655118 43.540157-97.159055 83.855118-156.422047 97.965354-41.12126 9.675591-112.075591 8.466142-153.196851-2.015748-64.100787-16.529134-121.751181-54.022047-155.212598-101.190551-25.398425-35.477165-31.445669-40.314961-48.781102-40.314961-10.48189 0-17.738583 2.822047-25.398426 10.48189z" p-id="5973"></path></svg>