<svg version="1" xmlns="http://www.w3.org/2000/svg" width="933.333" height="933.333" viewBox="0 0 700.000000 700.000000"><path d="M118 .7c-6.3.7-19.1 3.4-25.3 5.5C51.6 19.6 19.7 51.3 6.6 92-.4 113.4 0 99.1 0 350.1 0 542.3.2 577.9 1.5 586c8 53.2 46.5 95.8 98.6 109.4 18.3 4.7 18.4 4.7 257.4 4.4 224.5-.4 225-.4 234.5-2.5 55.7-12.3 95.3-52.7 105.6-107.8 1.8-9.6 1.9-19.3 1.9-240 0-255.1.5-236.1-6.5-257.7C677.9 44.5 635.8 9 586 1.5 577.9.2 542.7 0 349 .2 223.9.3 119.9.5 118 .7zm479.6 217.7c2.8 1.3 6.5 4.1 8.2 6.2 6.5 7.8 6.2 2.5 6.2 125.7 0 83.6-.3 113-1.2 115.9-1.5 5.2-8.7 13.2-13.5 15.1-3.2 1.2-17.1 1.5-91.3 1.8l-87.5.4-.6-7.5c-2.6-30.9-17.3-64.8-36.3-83.6-24.7-24.3-52.4-18.8-75.3 15.1-12.3 18.2-21.6 45.3-23.9 69.2l-.7 7.3H107.5l-5.1-2.4c-2.8-1.3-6.5-4.1-8.2-6.2-6.5-7.8-6.2-2.5-6.2-125.8 0-76.6.4-113.3 1.1-116 1.2-4.3 7.7-11.9 12.3-14.4 4.1-2.3 47.5-2.7 299.1-3l192-.2 5.1 2.4z"/><path d="M216 276.7c-12.4 1.6-25.5 8.2-34.9 17.5-23.6 23.6-23.3 61.8.7 85.3 6.4 6.3 13.7 10.7 23.2 14.1 9.5 3.4 25 3.9 34.5 1 16.6-5 30.2-16.1 37.4-30.7 9.2-18.8 9.3-36 0-54.8-7.1-14.5-20.8-25.8-36.8-30.5-5.7-1.7-18.3-2.7-24.1-1.9zm18 13.3c3.6 3.6 1.9 11-2.9 12.9-1.4.5-4.7 1.2-7.2 1.6-7.1.9-15.8 5.6-21.2 11.4-6.8 7.3-9.7 14.5-10.6 25.8-.4 6.5-1.1 9.8-2.3 10.9-2.4 2.4-8.5 2.1-11.4-.7-2.1-2-2.4-3.1-2.4-9.9 0-24.6 16.7-46 41-52.4 8.2-2.2 14.6-2 17 .4zM468.5 276.6c-15.9 2.5-31.1 11.4-40.2 23.7-8.8 11.9-11.8 21.3-11.7 36.7 0 10.4.3 12.3 3.2 20 12.1 32.1 46.9 47.8 78.4 35.4 8.8-3.4 15-7.8 22.1-15.5 10.7-11.5 15.7-24.3 15.7-40.4 0-17.5-5-29.5-17.5-42.1-8.4-8.5-17.4-13.8-27.7-16.3-5.6-1.3-18-2.1-22.3-1.5zM487 290c2.6 2.6 2.6 8 0 10.7-2.2 2.4-3.4 2.9-10.2 3.8-11.7 1.6-24.5 12-28.8 23.3-1.3 3.3-2.5 9.4-2.9 14.4-.7 10.1-1.9 12-7.7 12-6.1 0-8.4-3.5-8.4-12.4 0-24.4 16.9-45.8 41-52.2 8.2-2.2 14.6-2 17 .4z"/></svg>